<?xml version="1.0" standalone="no"?><!DOCTYPE svg PUBLIC "-//W3C//DTD SVG 1.1//EN" "http://www.w3.org/Graphics/SVG/1.1/DTD/svg11.dtd"><svg t="1631173597512" class="icon" viewBox="0 0 1024 1024" version="1.1" xmlns="http://www.w3.org/2000/svg" p-id="2196" xmlns:xlink="http://www.w3.org/1999/xlink" width="200" height="200"><defs><style type="text/css"></style></defs><path d="M512 224a508.48 508.48 0 0 1 444.16 272.64 32 32 0 0 1 0 32A508.48 508.48 0 0 1 512 800 508.48 508.48 0 0 1 67.84 527.36a32 32 0 0 1 0-32A508.48 508.48 0 0 1 512 224z m0 64a442.24 442.24 0 0 0-379.2 224A442.24 442.24 0 0 0 512 736a442.24 442.24 0 0 0 379.2-224A442.24 442.24 0 0 0 512 288z" p-id="2197"></path><path d="M640 512a128 128 0 1 1-128-128 128 128 0 0 1 128 128" p-id="2198"></path></svg>